<svg width="497" height="203" viewBox="0 0 497 203" fill="none" xmlns="http://www.w3.org/2000/svg">
<rect width="195" height="42" rx="7" fill="#ED4245" fill-opacity="0.5"/>
<path d="M14.9964 30C14.7984 30 14.6364 29.937 14.5104 29.811C14.3844 29.685 14.3214 29.523 14.3214 29.325V15.339H9.51544C9.31744 15.339 9.15544 15.276 9.02944 15.15C8.90344 15.006 8.84044 14.844 8.84044 14.664V11.775C8.84044 11.577 8.90344 11.415 9.02944 11.289C9.15544 11.163 9.31744 11.1 9.51544 11.1H24.0414C24.2394 11.1 24.4014 11.163 24.5274 11.289C24.6534 11.415 24.7164 11.577 24.7164 11.775V14.664C24.7164 14.844 24.6534 15.006 24.5274 15.15C24.4014 15.276 24.2394 15.339 24.0414 15.339H19.2354V29.325C19.2354 29.523 19.1724 29.685 19.0464 29.811C18.9204 29.937 18.7584 30 18.5604 30H14.9964ZM26.1508 30C25.9528 30 25.7908 29.937 25.6648 29.811C25.5388 29.685 25.4758 29.523 25.4758 29.325V16.635C25.4758 16.455 25.5388 16.302 25.6648 16.176C25.7908 16.032 25.9528 15.96 26.1508 15.96H29.2558C29.4538 15.96 29.6158 16.032 29.7418 16.176C29.8678 16.302 29.9308 16.455 29.9308 16.635V17.715C30.4168 17.157 30.9928 16.725 31.6588 16.419C32.3428 16.113 33.1078 15.96 33.9538 15.96H35.1418C35.3218 15.96 35.4748 16.023 35.6008 16.149C35.7448 16.275 35.8168 16.437 35.8168 16.635V19.416C35.8168 19.596 35.7448 19.758 35.6008 19.902C35.4748 20.028 35.3218 20.091 35.1418 20.091H32.5228C31.7848 20.091 31.2088 20.298 30.7948 20.712C30.3988 21.108 30.2008 21.675 30.2008 22.413V29.325C30.2008 29.523 30.1288 29.685 29.9848 29.811C29.8588 29.937 29.6968 30 29.4988 30H26.1508ZM42.8936 30.27C41.8676 30.27 40.9496 30.036 40.1396 29.568C39.3476 29.1 38.7266 28.416 38.2766 27.516C37.8266 26.598 37.6016 25.482 37.6016 24.168V16.635C37.6016 16.437 37.6646 16.275 37.7906 16.149C37.9166 16.023 38.0786 15.96 38.2766 15.96H41.6516C41.8496 15.96 42.0116 16.023 42.1376 16.149C42.2636 16.275 42.3266 16.437 42.3266 16.635V24.006C42.3266 25.77 43.1186 26.652 44.7026 26.652C45.4406 26.652 46.0256 26.427 46.4576 25.977C46.9076 25.509 47.1326 24.852 47.1326 24.006V16.635C47.1326 16.437 47.1956 16.275 47.3216 16.149C47.4476 16.023 47.6096 15.96 47.8076 15.96H51.1826C51.3806 15.96 51.5426 16.023 51.6686 16.149C51.7946 16.275 51.8576 16.437 51.8576 16.635V29.325C51.8576 29.523 51.7946 29.685 51.6686 29.811C51.5426 29.937 51.3806 30 51.1826 30H48.0506C47.8706 30 47.7086 29.937 47.5646 29.811C47.4386 29.685 47.3756 29.523 47.3756 29.325V28.299C46.9076 28.947 46.2956 29.442 45.5396 29.784C44.8016 30.108 43.9196 30.27 42.8936 30.27ZM62.2154 30C61.0634 30 60.0644 29.82 59.2184 29.46C58.3904 29.082 57.7514 28.506 57.3014 27.732C56.8514 26.94 56.6264 25.923 56.6264 24.681V19.497H54.5204C54.3224 19.497 54.1514 19.434 54.0074 19.308C53.8814 19.182 53.8184 19.02 53.8184 18.822V16.635C53.8184 16.437 53.8814 16.275 54.0074 16.149C54.1514 16.023 54.3224 15.96 54.5204 15.96H56.6264V11.505C56.6264 11.307 56.6894 11.145 56.8154 11.019C56.9594 10.893 57.1214 10.83 57.3014 10.83H60.4334C60.6314 10.83 60.7934 10.893 60.9194 11.019C61.0454 11.145 61.1084 11.307 61.1084 11.505V15.96H64.4834C64.6814 15.96 64.8434 16.023 64.9694 16.149C65.0954 16.275 65.1584 16.437 65.1584 16.635V18.822C65.1584 19.02 65.0954 19.182 64.9694 19.308C64.8434 19.434 64.6814 19.497 64.4834 19.497H61.1084V24.303C61.1084 24.915 61.2254 25.401 61.4594 25.761C61.6934 26.121 62.0894 26.301 62.6474 26.301H64.7264C64.9244 26.301 65.0864 26.364 65.2124 26.49C65.3384 26.616 65.4014 26.778 65.4014 26.976V29.325C65.4014 29.523 65.3384 29.685 65.2124 29.811C65.0864 29.937 64.9244 30 64.7264 30H62.2154ZM68.3119 30C68.1139 30 67.9519 29.937 67.8259 29.811C67.6999 29.685 67.6369 29.523 67.6369 29.325V11.505C67.6369 11.307 67.6999 11.145 67.8259 11.019C67.9519 10.893 68.1139 10.83 68.3119 10.83H71.7679C71.9659 10.83 72.1279 10.893 72.2539 11.019C72.3799 11.145 72.4429 11.307 72.4429 11.505V17.526C72.9289 16.968 73.5229 16.527 74.2249 16.203C74.9449 15.861 75.7729 15.69 76.7089 15.69C77.7529 15.69 78.6799 15.924 79.4899 16.392C80.3179 16.86 80.9659 17.553 81.4339 18.471C81.9019 19.371 82.1359 20.478 82.1359 21.792V29.325C82.1359 29.523 82.0729 29.685 81.9469 29.811C81.8209 29.937 81.6589 30 81.4609 30H77.9779C77.7979 30 77.6359 29.937 77.4919 29.811C77.3659 29.685 77.3029 29.523 77.3029 29.325V21.954C77.3029 21.108 77.0959 20.46 76.6819 20.01C76.2859 19.542 75.6919 19.308 74.8999 19.308C74.1619 19.308 73.5679 19.542 73.1179 20.01C72.6679 20.46 72.4429 21.108 72.4429 21.954V29.325C72.4429 29.523 72.3799 29.685 72.2539 29.811C72.1279 29.937 71.9659 30 71.7679 30H68.3119ZM97.5875 30.27C96.0755 30.27 94.7975 30.027 93.7535 29.541C92.7275 29.055 91.9355 28.362 91.3775 27.462C90.8375 26.544 90.5315 25.455 90.4595 24.195C90.4415 23.835 90.4325 23.43 90.4325 22.98C90.4325 22.512 90.4415 22.107 90.4595 21.765C90.5315 20.487 90.8555 19.398 91.4315 18.498C92.0075 17.598 92.8085 16.905 93.8345 16.419C94.8785 15.933 96.1295 15.69 97.5875 15.69C99.0635 15.69 100.315 15.933 101.341 16.419C102.385 16.905 103.195 17.598 103.771 18.498C104.347 19.398 104.671 20.487 104.743 21.765C104.761 22.107 104.77 22.512 104.77 22.98C104.77 23.43 104.761 23.835 104.743 24.195C104.671 25.455 104.356 26.544 103.798 27.462C103.258 28.362 102.466 29.055 101.422 29.541C100.396 30.027 99.1175 30.27 97.5875 30.27ZM97.5875 26.976C98.3975 26.976 98.9825 26.733 99.3425 26.247C99.7205 25.761 99.9365 25.032 99.9905 24.06C100.009 23.79 100.018 23.43 100.018 22.98C100.018 22.53 100.009 22.17 99.9905 21.9C99.9365 20.946 99.7205 20.226 99.3425 19.74C98.9825 19.236 98.3975 18.984 97.5875 18.984C96.7955 18.984 96.2105 19.236 95.8325 19.74C95.4545 20.226 95.2475 20.946 95.2115 21.9C95.1935 22.17 95.1845 22.53 95.1845 22.98C95.1845 23.43 95.1935 23.79 95.2115 24.06C95.2475 25.032 95.4545 25.761 95.8325 26.247C96.2105 26.733 96.7955 26.976 97.5875 26.976ZM108.1 30C107.902 30 107.74 29.937 107.614 29.811C107.488 29.685 107.425 29.523 107.425 29.325V16.635C107.425 16.455 107.488 16.302 107.614 16.176C107.74 16.032 107.902 15.96 108.1 15.96H111.205C111.403 15.96 111.565 16.032 111.691 16.176C111.817 16.302 111.88 16.455 111.88 16.635V17.715C112.366 17.157 112.942 16.725 113.608 16.419C114.292 16.113 115.057 15.96 115.903 15.96H117.091C117.271 15.96 117.424 16.023 117.55 16.149C117.694 16.275 117.766 16.437 117.766 16.635V19.416C117.766 19.596 117.694 19.758 117.55 19.902C117.424 20.028 117.271 20.091 117.091 20.091H114.472C113.734 20.091 113.158 20.298 112.744 20.712C112.348 21.108 112.15 21.675 112.15 22.413V29.325C112.15 29.523 112.078 29.685 111.934 29.811C111.808 29.937 111.646 30 111.448 30H108.1ZM125.852 30C125.654 30 125.492 29.937 125.366 29.811C125.24 29.685 125.177 29.523 125.177 29.325V11.775C125.177 11.577 125.24 11.415 125.366 11.289C125.492 11.163 125.654 11.1 125.852 11.1H132.872C134.636 11.1 136.139 11.388 137.381 11.964C138.623 12.522 139.577 13.35 140.243 14.448C140.909 15.528 141.269 16.869 141.323 18.471C141.341 19.263 141.35 19.956 141.35 20.55C141.35 21.144 141.341 21.828 141.323 22.602C141.251 24.276 140.891 25.662 140.243 26.76C139.613 27.858 138.686 28.677 137.462 29.217C136.256 29.739 134.771 30 133.007 30H125.852ZM130.01 26.112H132.872C133.646 26.112 134.285 25.995 134.789 25.761C135.311 25.509 135.698 25.122 135.95 24.6C136.22 24.078 136.364 23.394 136.382 22.548C136.418 22.026 136.436 21.558 136.436 21.144C136.454 20.73 136.454 20.316 136.436 19.902C136.436 19.488 136.418 19.029 136.382 18.525C136.346 17.301 136.022 16.41 135.41 15.852C134.816 15.276 133.925 14.988 132.737 14.988H130.01V26.112ZM148.419 30.27C147.447 30.27 146.574 30.09 145.8 29.73C145.044 29.352 144.441 28.848 143.991 28.218C143.541 27.588 143.316 26.877 143.316 26.085C143.316 24.807 143.838 23.799 144.882 23.061C145.926 22.305 147.312 21.792 149.04 21.522L152.415 21.009V20.631C152.415 19.983 152.28 19.488 152.01 19.146C151.74 18.804 151.245 18.633 150.525 18.633C150.021 18.633 149.607 18.732 149.283 18.93C148.977 19.128 148.734 19.398 148.554 19.74C148.392 19.974 148.167 20.091 147.879 20.091H144.855C144.657 20.091 144.504 20.037 144.396 19.929C144.288 19.803 144.243 19.659 144.261 19.497C144.261 19.173 144.378 18.804 144.612 18.39C144.864 17.958 145.242 17.535 145.746 17.121C146.25 16.707 146.898 16.365 147.69 16.095C148.482 15.825 149.436 15.69 150.552 15.69C151.722 15.69 152.721 15.825 153.549 16.095C154.377 16.365 155.043 16.743 155.547 17.229C156.069 17.715 156.456 18.291 156.708 18.957C156.96 19.605 157.086 20.325 157.086 21.117V29.325C157.086 29.523 157.014 29.685 156.87 29.811C156.744 29.937 156.591 30 156.411 30H153.279C153.081 30 152.919 29.937 152.793 29.811C152.667 29.685 152.604 29.523 152.604 29.325V28.38C152.37 28.722 152.055 29.037 151.659 29.325C151.263 29.613 150.795 29.838 150.255 30C149.733 30.18 149.121 30.27 148.419 30.27ZM149.688 27.192C150.21 27.192 150.678 27.084 151.092 26.868C151.524 26.634 151.857 26.283 152.091 25.815C152.343 25.329 152.469 24.726 152.469 24.006V23.628L150.174 24.033C149.328 24.177 148.707 24.402 148.311 24.708C147.933 24.996 147.744 25.338 147.744 25.734C147.744 26.04 147.834 26.301 148.014 26.517C148.194 26.733 148.428 26.904 148.716 27.03C149.004 27.138 149.328 27.192 149.688 27.192ZM160.808 30C160.61 30 160.448 29.937 160.322 29.811C160.196 29.685 160.133 29.523 160.133 29.325V16.635C160.133 16.455 160.196 16.302 160.322 16.176C160.448 16.032 160.61 15.96 160.808 15.96H163.913C164.111 15.96 164.273 16.032 164.399 16.176C164.525 16.302 164.588 16.455 164.588 16.635V17.715C165.074 17.157 165.65 16.725 166.316 16.419C167 16.113 167.765 15.96 168.611 15.96H169.799C169.979 15.96 170.132 16.023 170.258 16.149C170.402 16.275 170.474 16.437 170.474 16.635V19.416C170.474 19.596 170.402 19.758 170.258 19.902C170.132 20.028 169.979 20.091 169.799 20.091H167.18C166.442 20.091 165.866 20.298 165.452 20.712C165.056 21.108 164.858 21.675 164.858 22.413V29.325C164.858 29.523 164.786 29.685 164.642 29.811C164.516 29.937 164.354 30 164.156 30H160.808ZM178.768 30.27C176.644 30.27 174.952 29.694 173.692 28.542C172.432 27.39 171.775 25.68 171.721 23.412C171.721 23.286 171.721 23.124 171.721 22.926C171.721 22.728 171.721 22.575 171.721 22.467C171.775 21.045 172.09 19.83 172.666 18.822C173.26 17.796 174.07 17.022 175.096 16.5C176.14 15.96 177.355 15.69 178.741 15.69C180.325 15.69 181.63 16.005 182.656 16.635C183.7 17.265 184.483 18.12 185.005 19.2C185.527 20.28 185.788 21.513 185.788 22.899V23.547C185.788 23.745 185.716 23.907 185.572 24.033C185.446 24.159 185.293 24.222 185.113 24.222H176.473C176.473 24.24 176.473 24.267 176.473 24.303C176.473 24.339 176.473 24.375 176.473 24.411C176.491 24.933 176.581 25.41 176.743 25.842C176.905 26.274 177.157 26.616 177.499 26.868C177.841 27.12 178.255 27.246 178.741 27.246C179.101 27.246 179.398 27.192 179.632 27.084C179.884 26.958 180.091 26.823 180.253 26.679C180.415 26.517 180.541 26.382 180.631 26.274C180.793 26.094 180.919 25.986 181.009 25.95C181.117 25.896 181.279 25.869 181.495 25.869H184.843C185.023 25.869 185.167 25.923 185.275 26.031C185.401 26.121 185.455 26.256 185.437 26.436C185.419 26.742 185.266 27.111 184.978 27.543C184.69 27.975 184.267 28.407 183.709 28.839C183.169 29.253 182.485 29.595 181.657 29.865C180.829 30.135 179.866 30.27 178.768 30.27ZM176.473 21.549H181.036V21.495C181.036 20.919 180.946 20.415 180.766 19.983C180.604 19.551 180.343 19.218 179.983 18.984C179.641 18.75 179.227 18.633 178.741 18.633C178.255 18.633 177.841 18.75 177.499 18.984C177.175 19.218 176.923 19.551 176.743 19.983C176.563 20.415 176.473 20.919 176.473 21.495V21.549Z" fill="white"/>
<rect x="43" y="131" width="255" height="42" rx="7" fill="#626FFF" fill-opacity="0.5"/>
<path d="M57.9492 161C57.6432 161 57.4002 160.91 57.2202 160.73C57.0402 160.55 56.9322 160.343 56.8962 160.109L53.9532 142.856C53.9352 142.82 53.9262 142.784 53.9262 142.748C53.9262 142.712 53.9262 142.685 53.9262 142.667C53.9262 142.523 53.9802 142.397 54.0882 142.289C54.2142 142.163 54.3492 142.1 54.4932 142.1H57.8412C58.3452 142.1 58.6242 142.298 58.6782 142.694L60.4332 153.251L62.3772 147.014C62.4312 146.87 62.5212 146.717 62.6472 146.555C62.7732 146.375 62.9802 146.285 63.2682 146.285H65.2122C65.5182 146.285 65.7342 146.375 65.8602 146.555C65.9862 146.717 66.0672 146.87 66.1032 147.014L68.0472 153.224L69.8022 142.694C69.8562 142.298 70.1352 142.1 70.6392 142.1H73.9872C74.1492 142.1 74.2842 142.163 74.3922 142.289C74.5002 142.397 74.5542 142.523 74.5542 142.667C74.5542 142.685 74.5542 142.712 74.5542 142.748C74.5542 142.784 74.5542 142.82 74.5542 142.856L71.6112 160.109C71.5752 160.343 71.4672 160.55 71.2872 160.73C71.1072 160.91 70.8642 161 70.5582 161H67.9932C67.6872 161 67.4532 160.919 67.2912 160.757C67.1292 160.595 67.0212 160.442 66.9672 160.298L64.2402 152.576L61.5132 160.298C61.4592 160.442 61.3512 160.595 61.1892 160.757C61.0452 160.919 60.8202 161 60.5142 161H57.9492ZM83.1813 161.27C81.6693 161.27 80.3913 161.027 79.3473 160.541C78.3213 160.055 77.5293 159.362 76.9713 158.462C76.4313 157.544 76.1253 156.455 76.0533 155.195C76.0353 154.835 76.0263 154.43 76.0263 153.98C76.0263 153.512 76.0353 153.107 76.0533 152.765C76.1253 151.487 76.4493 150.398 77.0253 149.498C77.6013 148.598 78.4023 147.905 79.4283 147.419C80.4723 146.933 81.7233 146.69 83.1813 146.69C84.6573 146.69 85.9083 146.933 86.9343 147.419C87.9783 147.905 88.7883 148.598 89.3643 149.498C89.9403 150.398 90.2643 151.487 90.3363 152.765C90.3543 153.107 90.3633 153.512 90.3633 153.98C90.3633 154.43 90.3543 154.835 90.3363 155.195C90.2643 156.455 89.9493 157.544 89.3913 158.462C88.8513 159.362 88.0593 160.055 87.0153 160.541C85.9893 161.027 84.7113 161.27 83.1813 161.27ZM83.1813 157.976C83.9913 157.976 84.5763 157.733 84.9363 157.247C85.3143 156.761 85.5303 156.032 85.5843 155.06C85.6023 154.79 85.6113 154.43 85.6113 153.98C85.6113 153.53 85.6023 153.17 85.5843 152.9C85.5303 151.946 85.3143 151.226 84.9363 150.74C84.5763 150.236 83.9913 149.984 83.1813 149.984C82.3893 149.984 81.8043 150.236 81.4263 150.74C81.0483 151.226 80.8413 151.946 80.8053 152.9C80.7873 153.17 80.7783 153.53 80.7783 153.98C80.7783 154.43 80.7873 154.79 80.8053 155.06C80.8413 156.032 81.0483 156.761 81.4263 157.247C81.8043 157.733 82.3893 157.976 83.1813 157.976ZM98.1758 161.27C97.1498 161.27 96.2318 161.036 95.4218 160.568C94.6298 160.1 94.0088 159.416 93.5588 158.516C93.1088 157.598 92.8838 156.482 92.8838 155.168V147.635C92.8838 147.437 92.9468 147.275 93.0728 147.149C93.1988 147.023 93.3608 146.96 93.5588 146.96H96.9338C97.1318 146.96 97.2938 147.023 97.4198 147.149C97.5458 147.275 97.6088 147.437 97.6088 147.635V155.006C97.6088 156.77 98.4008 157.652 99.9848 157.652C100.723 157.652 101.308 157.427 101.74 156.977C102.19 156.509 102.415 155.852 102.415 155.006V147.635C102.415 147.437 102.478 147.275 102.604 147.149C102.73 147.023 102.892 146.96 103.09 146.96H106.465C106.663 146.96 106.825 147.023 106.951 147.149C107.077 147.275 107.14 147.437 107.14 147.635V160.325C107.14 160.523 107.077 160.685 106.951 160.811C106.825 160.937 106.663 161 106.465 161H103.333C103.153 161 102.991 160.937 102.847 160.811C102.721 160.685 102.658 160.523 102.658 160.325V159.299C102.19 159.947 101.578 160.442 100.822 160.784C100.084 161.108 99.2018 161.27 98.1758 161.27ZM110.991 161C110.793 161 110.631 160.937 110.505 160.811C110.379 160.685 110.316 160.523 110.316 160.325V142.505C110.316 142.307 110.379 142.145 110.505 142.019C110.631 141.893 110.793 141.83 110.991 141.83H114.177C114.375 141.83 114.537 141.893 114.663 142.019C114.789 142.145 114.852 142.307 114.852 142.505V160.325C114.852 160.523 114.789 160.685 114.663 160.811C114.537 160.937 114.375 161 114.177 161H110.991ZM123.279 161.27C122.415 161.27 121.632 161.135 120.93 160.865C120.246 160.577 119.652 160.163 119.148 159.623C118.662 159.065 118.284 158.399 118.014 157.625C117.744 156.833 117.591 155.933 117.555 154.925C117.537 154.565 117.528 154.25 117.528 153.98C117.528 153.692 117.537 153.377 117.555 153.035C117.591 152.063 117.744 151.19 118.014 150.416C118.284 149.642 118.662 148.976 119.148 148.418C119.634 147.86 120.228 147.437 120.93 147.149C121.632 146.843 122.415 146.69 123.279 146.69C124.179 146.69 124.953 146.843 125.601 147.149C126.249 147.437 126.798 147.815 127.248 148.283V142.505C127.248 142.307 127.311 142.145 127.437 142.019C127.563 141.893 127.725 141.83 127.923 141.83H131.217C131.397 141.83 131.55 141.893 131.676 142.019C131.82 142.145 131.892 142.307 131.892 142.505V160.325C131.892 160.523 131.82 160.685 131.676 160.811C131.55 160.937 131.397 161 131.217 161H128.166C127.968 161 127.806 160.937 127.68 160.811C127.554 160.685 127.491 160.523 127.491 160.325V159.461C127.059 159.983 126.501 160.415 125.817 160.757C125.133 161.099 124.287 161.27 123.279 161.27ZM124.737 157.652C125.349 157.652 125.826 157.526 126.168 157.274C126.528 157.004 126.789 156.662 126.951 156.248C127.131 155.834 127.23 155.384 127.248 154.898C127.266 154.538 127.275 154.196 127.275 153.872C127.275 153.548 127.266 153.215 127.248 152.873C127.23 152.423 127.131 152.009 126.951 151.631C126.771 151.235 126.501 150.92 126.141 150.686C125.781 150.434 125.313 150.308 124.737 150.308C124.143 150.308 123.666 150.434 123.306 150.686C122.964 150.938 122.721 151.28 122.577 151.712C122.433 152.144 122.343 152.621 122.307 153.143C122.253 153.701 122.253 154.259 122.307 154.817C122.343 155.339 122.433 155.816 122.577 156.248C122.721 156.68 122.964 157.022 123.306 157.274C123.666 157.526 124.143 157.652 124.737 157.652ZM145.89 161C145.71 161 145.548 160.937 145.404 160.811C145.278 160.685 145.215 160.523 145.215 160.325V154.52L138.951 142.964C138.933 142.91 138.915 142.865 138.897 142.829C138.879 142.775 138.87 142.721 138.87 142.667C138.87 142.523 138.924 142.397 139.032 142.289C139.158 142.163 139.302 142.1 139.464 142.1H142.839C143.109 142.1 143.316 142.172 143.46 142.316C143.622 142.442 143.721 142.559 143.757 142.667L147.645 149.633L151.533 142.667C151.587 142.559 151.686 142.442 151.83 142.316C151.992 142.172 152.208 142.1 152.478 142.1H155.853C156.015 142.1 156.15 142.163 156.258 142.289C156.366 142.397 156.42 142.523 156.42 142.667C156.42 142.721 156.411 142.775 156.393 142.829C156.393 142.865 156.384 142.91 156.366 142.964L150.075 154.52V160.325C150.075 160.523 150.012 160.685 149.886 160.811C149.76 160.937 149.598 161 149.4 161H145.89ZM162.731 161.27C161.219 161.27 159.941 161.027 158.897 160.541C157.871 160.055 157.079 159.362 156.521 158.462C155.981 157.544 155.675 156.455 155.603 155.195C155.585 154.835 155.576 154.43 155.576 153.98C155.576 153.512 155.585 153.107 155.603 152.765C155.675 151.487 155.999 150.398 156.575 149.498C157.151 148.598 157.952 147.905 158.978 147.419C160.022 146.933 161.273 146.69 162.731 146.69C164.207 146.69 165.458 146.933 166.484 147.419C167.528 147.905 168.338 148.598 168.914 149.498C169.49 150.398 169.814 151.487 169.886 152.765C169.904 153.107 169.913 153.512 169.913 153.98C169.913 154.43 169.904 154.835 169.886 155.195C169.814 156.455 169.499 157.544 168.941 158.462C168.401 159.362 167.609 160.055 166.565 160.541C165.539 161.027 164.261 161.27 162.731 161.27ZM162.731 157.976C163.541 157.976 164.126 157.733 164.486 157.247C164.864 156.761 165.08 156.032 165.134 155.06C165.152 154.79 165.161 154.43 165.161 153.98C165.161 153.53 165.152 153.17 165.134 152.9C165.08 151.946 164.864 151.226 164.486 150.74C164.126 150.236 163.541 149.984 162.731 149.984C161.939 149.984 161.354 150.236 160.976 150.74C160.598 151.226 160.391 151.946 160.355 152.9C160.337 153.17 160.328 153.53 160.328 153.98C160.328 154.43 160.337 154.79 160.355 155.06C160.391 156.032 160.598 156.761 160.976 157.247C161.354 157.733 161.939 157.976 162.731 157.976ZM177.726 161.27C176.7 161.27 175.782 161.036 174.972 160.568C174.18 160.1 173.559 159.416 173.109 158.516C172.659 157.598 172.434 156.482 172.434 155.168V147.635C172.434 147.437 172.497 147.275 172.623 147.149C172.749 147.023 172.911 146.96 173.109 146.96H176.484C176.682 146.96 176.844 147.023 176.97 147.149C177.096 147.275 177.159 147.437 177.159 147.635V155.006C177.159 156.77 177.951 157.652 179.535 157.652C180.273 157.652 180.858 157.427 181.29 156.977C181.74 156.509 181.965 155.852 181.965 155.006V147.635C181.965 147.437 182.028 147.275 182.154 147.149C182.28 147.023 182.442 146.96 182.64 146.96H186.015C186.213 146.96 186.375 147.023 186.501 147.149C186.627 147.275 186.69 147.437 186.69 147.635V160.325C186.69 160.523 186.627 160.685 186.501 160.811C186.375 160.937 186.213 161 186.015 161H182.883C182.703 161 182.541 160.937 182.397 160.811C182.271 160.685 182.208 160.523 182.208 160.325V159.299C181.74 159.947 181.128 160.442 180.372 160.784C179.634 161.108 178.752 161.27 177.726 161.27ZM196.586 161C196.388 161 196.226 160.937 196.1 160.811C195.974 160.685 195.911 160.523 195.911 160.325V142.775C195.911 142.577 195.974 142.415 196.1 142.289C196.226 142.163 196.388 142.1 196.586 142.1H203.93C206.252 142.1 208.079 142.64 209.411 143.72C210.761 144.782 211.436 146.294 211.436 148.256C211.436 149.534 211.121 150.614 210.491 151.496C209.879 152.378 209.069 153.044 208.061 153.494L211.787 160.136C211.841 160.244 211.868 160.343 211.868 160.433C211.868 160.577 211.805 160.712 211.679 160.838C211.571 160.946 211.436 161 211.274 161H207.71C207.368 161 207.116 160.919 206.954 160.757C206.792 160.577 206.675 160.415 206.603 160.271L203.525 154.331H200.744V160.325C200.744 160.523 200.681 160.685 200.555 160.811C200.429 160.937 200.267 161 200.069 161H196.586ZM200.744 150.524H203.876C204.722 150.524 205.352 150.317 205.766 149.903C206.198 149.489 206.414 148.922 206.414 148.202C206.414 147.5 206.207 146.933 205.793 146.501C205.397 146.069 204.758 145.853 203.876 145.853H200.744V150.524ZM218.493 161.27C217.521 161.27 216.648 161.09 215.874 160.73C215.118 160.352 214.515 159.848 214.065 159.218C213.615 158.588 213.39 157.877 213.39 157.085C213.39 155.807 213.912 154.799 214.956 154.061C216 153.305 217.386 152.792 219.114 152.522L222.489 152.009V151.631C222.489 150.983 222.354 150.488 222.084 150.146C221.814 149.804 221.319 149.633 220.599 149.633C220.095 149.633 219.681 149.732 219.357 149.93C219.051 150.128 218.808 150.398 218.628 150.74C218.466 150.974 218.241 151.091 217.953 151.091H214.929C214.731 151.091 214.578 151.037 214.47 150.929C214.362 150.803 214.317 150.659 214.335 150.497C214.335 150.173 214.452 149.804 214.686 149.39C214.938 148.958 215.316 148.535 215.82 148.121C216.324 147.707 216.972 147.365 217.764 147.095C218.556 146.825 219.51 146.69 220.626 146.69C221.796 146.69 222.795 146.825 223.623 147.095C224.451 147.365 225.117 147.743 225.621 148.229C226.143 148.715 226.53 149.291 226.782 149.957C227.034 150.605 227.16 151.325 227.16 152.117V160.325C227.16 160.523 227.088 160.685 226.944 160.811C226.818 160.937 226.665 161 226.485 161H223.353C223.155 161 222.993 160.937 222.867 160.811C222.741 160.685 222.678 160.523 222.678 160.325V159.38C222.444 159.722 222.129 160.037 221.733 160.325C221.337 160.613 220.869 160.838 220.329 161C219.807 161.18 219.195 161.27 218.493 161.27ZM219.762 158.192C220.284 158.192 220.752 158.084 221.166 157.868C221.598 157.634 221.931 157.283 222.165 156.815C222.417 156.329 222.543 155.726 222.543 155.006V154.628L220.248 155.033C219.402 155.177 218.781 155.402 218.385 155.708C218.007 155.996 217.818 156.338 217.818 156.734C217.818 157.04 217.908 157.301 218.088 157.517C218.268 157.733 218.502 157.904 218.79 158.03C219.078 158.138 219.402 158.192 219.762 158.192ZM237.284 161C236.132 161 235.133 160.82 234.287 160.46C233.459 160.082 232.82 159.506 232.37 158.732C231.92 157.94 231.695 156.923 231.695 155.681V150.497H229.589C229.391 150.497 229.22 150.434 229.076 150.308C228.95 150.182 228.887 150.02 228.887 149.822V147.635C228.887 147.437 228.95 147.275 229.076 147.149C229.22 147.023 229.391 146.96 229.589 146.96H231.695V142.505C231.695 142.307 231.758 142.145 231.884 142.019C232.028 141.893 232.19 141.83 232.37 141.83H235.502C235.7 141.83 235.862 141.893 235.988 142.019C236.114 142.145 236.177 142.307 236.177 142.505V146.96H239.552C239.75 146.96 239.912 147.023 240.038 147.149C240.164 147.275 240.227 147.437 240.227 147.635V149.822C240.227 150.02 240.164 150.182 240.038 150.308C239.912 150.434 239.75 150.497 239.552 150.497H236.177V155.303C236.177 155.915 236.294 156.401 236.528 156.761C236.762 157.121 237.158 157.301 237.716 157.301H239.795C239.993 157.301 240.155 157.364 240.281 157.49C240.407 157.616 240.47 157.778 240.47 157.976V160.325C240.47 160.523 240.407 160.685 240.281 160.811C240.155 160.937 239.993 161 239.795 161H237.284ZM243.38 161C243.182 161 243.02 160.937 242.894 160.811C242.768 160.685 242.705 160.523 242.705 160.325V142.505C242.705 142.307 242.768 142.145 242.894 142.019C243.02 141.893 243.182 141.83 243.38 141.83H246.836C247.034 141.83 247.196 141.893 247.322 142.019C247.448 142.145 247.511 142.307 247.511 142.505V148.526C247.997 147.968 248.591 147.527 249.293 147.203C250.013 146.861 250.841 146.69 251.777 146.69C252.821 146.69 253.748 146.924 254.558 147.392C255.386 147.86 256.034 148.553 256.502 149.471C256.97 150.371 257.204 151.478 257.204 152.792V160.325C257.204 160.523 257.141 160.685 257.015 160.811C256.889 160.937 256.727 161 256.529 161H253.046C252.866 161 252.704 160.937 252.56 160.811C252.434 160.685 252.371 160.523 252.371 160.325V152.954C252.371 152.108 252.164 151.46 251.75 151.01C251.354 150.542 250.76 150.308 249.968 150.308C249.23 150.308 248.636 150.542 248.186 151.01C247.736 151.46 247.511 152.108 247.511 152.954V160.325C247.511 160.523 247.448 160.685 247.322 160.811C247.196 160.937 247.034 161 246.836 161H243.38ZM266.746 161.27C264.622 161.27 262.93 160.694 261.67 159.542C260.41 158.39 259.753 156.68 259.699 154.412C259.699 154.286 259.699 154.124 259.699 153.926C259.699 153.728 259.699 153.575 259.699 153.467C259.753 152.045 260.068 150.83 260.644 149.822C261.238 148.796 262.048 148.022 263.074 147.5C264.118 146.96 265.333 146.69 266.719 146.69C268.303 146.69 269.608 147.005 270.634 147.635C271.678 148.265 272.461 149.12 272.983 150.2C273.505 151.28 273.766 152.513 273.766 153.899V154.547C273.766 154.745 273.694 154.907 273.55 155.033C273.424 155.159 273.271 155.222 273.091 155.222H264.451C264.451 155.24 264.451 155.267 264.451 155.303C264.451 155.339 264.451 155.375 264.451 155.411C264.469 155.933 264.559 156.41 264.721 156.842C264.883 157.274 265.135 157.616 265.477 157.868C265.819 158.12 266.233 158.246 266.719 158.246C267.079 158.246 267.376 158.192 267.61 158.084C267.862 157.958 268.069 157.823 268.231 157.679C268.393 157.517 268.519 157.382 268.609 157.274C268.771 157.094 268.897 156.986 268.987 156.95C269.095 156.896 269.257 156.869 269.473 156.869H272.821C273.001 156.869 273.145 156.923 273.253 157.031C273.379 157.121 273.433 157.256 273.415 157.436C273.397 157.742 273.244 158.111 272.956 158.543C272.668 158.975 272.245 159.407 271.687 159.839C271.147 160.253 270.463 160.595 269.635 160.865C268.807 161.135 267.844 161.27 266.746 161.27ZM264.451 152.549H269.014V152.495C269.014 151.919 268.924 151.415 268.744 150.983C268.582 150.551 268.321 150.218 267.961 149.984C267.619 149.75 267.205 149.633 266.719 149.633C266.233 149.633 265.819 149.75 265.477 149.984C265.153 150.218 264.901 150.551 264.721 150.983C264.541 151.415 264.451 151.919 264.451 152.495V152.549ZM276.972 161C276.774 161 276.612 160.937 276.486 160.811C276.36 160.685 276.297 160.523 276.297 160.325V147.635C276.297 147.455 276.36 147.302 276.486 147.176C276.612 147.032 276.774 146.96 276.972 146.96H280.077C280.275 146.96 280.437 147.032 280.563 147.176C280.689 147.302 280.752 147.455 280.752 147.635V148.715C281.238 148.157 281.814 147.725 282.48 147.419C283.164 147.113 283.929 146.96 284.775 146.96H285.963C286.143 146.96 286.296 147.023 286.422 147.149C286.566 147.275 286.638 147.437 286.638 147.635V150.416C286.638 150.596 286.566 150.758 286.422 150.902C286.296 151.028 286.143 151.091 285.963 151.091H283.344C282.606 151.091 282.03 151.298 281.616 151.712C281.22 152.108 281.022 152.675 281.022 153.413V160.325C281.022 160.523 280.95 160.685 280.806 160.811C280.68 160.937 280.518 161 280.32 161H276.972Z" fill="white"/>
<rect x="248" y="37" width="249" height="42" rx="7" fill="#B854FF" fill-opacity="0.5"/>
<path d="M258.918 67C258.72 67 258.558 66.937 258.432 66.811C258.306 66.685 258.243 66.523 258.243 66.325V48.775C258.243 48.577 258.306 48.415 258.432 48.289C258.558 48.163 258.72 48.1 258.918 48.1H261.78C262.086 48.1 262.302 48.172 262.428 48.316C262.572 48.442 262.662 48.541 262.698 48.613L269.286 59.008V48.775C269.286 48.577 269.349 48.415 269.475 48.289C269.601 48.163 269.763 48.1 269.961 48.1H273.201C273.399 48.1 273.561 48.163 273.687 48.289C273.813 48.415 273.876 48.577 273.876 48.775V66.325C273.876 66.505 273.813 66.667 273.687 66.811C273.561 66.937 273.399 67 273.201 67H270.312C270.024 67 269.808 66.928 269.664 66.784C269.538 66.64 269.457 66.541 269.421 66.487L262.833 56.497V66.325C262.833 66.523 262.77 66.685 262.644 66.811C262.518 66.937 262.356 67 262.158 67H258.918ZM283.832 67.27C281.708 67.27 280.016 66.694 278.756 65.542C277.496 64.39 276.839 62.68 276.785 60.412C276.785 60.286 276.785 60.124 276.785 59.926C276.785 59.728 276.785 59.575 276.785 59.467C276.839 58.045 277.154 56.83 277.73 55.822C278.324 54.796 279.134 54.022 280.16 53.5C281.204 52.96 282.419 52.69 283.805 52.69C285.389 52.69 286.694 53.005 287.72 53.635C288.764 54.265 289.547 55.12 290.069 56.2C290.591 57.28 290.852 58.513 290.852 59.899V60.547C290.852 60.745 290.78 60.907 290.636 61.033C290.51 61.159 290.357 61.222 290.177 61.222H281.537C281.537 61.24 281.537 61.267 281.537 61.303C281.537 61.339 281.537 61.375 281.537 61.411C281.555 61.933 281.645 62.41 281.807 62.842C281.969 63.274 282.221 63.616 282.563 63.868C282.905 64.12 283.319 64.246 283.805 64.246C284.165 64.246 284.462 64.192 284.696 64.084C284.948 63.958 285.155 63.823 285.317 63.679C285.479 63.517 285.605 63.382 285.695 63.274C285.857 63.094 285.983 62.986 286.073 62.95C286.181 62.896 286.343 62.869 286.559 62.869H289.907C290.087 62.869 290.231 62.923 290.339 63.031C290.465 63.121 290.519 63.256 290.501 63.436C290.483 63.742 290.33 64.111 290.042 64.543C289.754 64.975 289.331 65.407 288.773 65.839C288.233 66.253 287.549 66.595 286.721 66.865C285.893 67.135 284.93 67.27 283.832 67.27ZM281.537 58.549H286.1V58.495C286.1 57.919 286.01 57.415 285.83 56.983C285.668 56.551 285.407 56.218 285.047 55.984C284.705 55.75 284.291 55.633 283.805 55.633C283.319 55.633 282.905 55.75 282.563 55.984C282.239 56.218 281.987 56.551 281.807 56.983C281.627 57.415 281.537 57.919 281.537 58.495V58.549ZM297.851 67C297.581 67 297.383 66.937 297.257 66.811C297.131 66.667 297.023 66.505 296.933 66.325L291.83 53.797C291.794 53.725 291.776 53.644 291.776 53.554C291.776 53.392 291.83 53.257 291.938 53.149C292.064 53.023 292.217 52.96 292.397 52.96H295.448C295.682 52.96 295.862 53.023 295.988 53.149C296.114 53.275 296.195 53.401 296.231 53.527L299.282 61.816L302.36 53.527C302.396 53.401 302.477 53.275 302.603 53.149C302.729 53.023 302.909 52.96 303.143 52.96H306.194C306.356 52.96 306.5 53.023 306.626 53.149C306.752 53.257 306.815 53.392 306.815 53.554C306.815 53.644 306.797 53.725 306.761 53.797L301.658 66.325C301.586 66.505 301.478 66.667 301.334 66.811C301.208 66.937 301.001 67 300.713 67H297.851ZM314.866 67.27C312.742 67.27 311.05 66.694 309.79 65.542C308.53 64.39 307.873 62.68 307.819 60.412C307.819 60.286 307.819 60.124 307.819 59.926C307.819 59.728 307.819 59.575 307.819 59.467C307.873 58.045 308.188 56.83 308.764 55.822C309.358 54.796 310.168 54.022 311.194 53.5C312.238 52.96 313.453 52.69 314.839 52.69C316.423 52.69 317.728 53.005 318.754 53.635C319.798 54.265 320.581 55.12 321.103 56.2C321.625 57.28 321.886 58.513 321.886 59.899V60.547C321.886 60.745 321.814 60.907 321.67 61.033C321.544 61.159 321.391 61.222 321.211 61.222H312.571C312.571 61.24 312.571 61.267 312.571 61.303C312.571 61.339 312.571 61.375 312.571 61.411C312.589 61.933 312.679 62.41 312.841 62.842C313.003 63.274 313.255 63.616 313.597 63.868C313.939 64.12 314.353 64.246 314.839 64.246C315.199 64.246 315.496 64.192 315.73 64.084C315.982 63.958 316.189 63.823 316.351 63.679C316.513 63.517 316.639 63.382 316.729 63.274C316.891 63.094 317.017 62.986 317.107 62.95C317.215 62.896 317.377 62.869 317.593 62.869H320.941C321.121 62.869 321.265 62.923 321.373 63.031C321.499 63.121 321.553 63.256 321.535 63.436C321.517 63.742 321.364 64.111 321.076 64.543C320.788 64.975 320.365 65.407 319.807 65.839C319.267 66.253 318.583 66.595 317.755 66.865C316.927 67.135 315.964 67.27 314.866 67.27ZM312.571 58.549H317.134V58.495C317.134 57.919 317.044 57.415 316.864 56.983C316.702 56.551 316.441 56.218 316.081 55.984C315.739 55.75 315.325 55.633 314.839 55.633C314.353 55.633 313.939 55.75 313.597 55.984C313.273 56.218 313.021 56.551 312.841 56.983C312.661 57.415 312.571 57.919 312.571 58.495V58.549ZM325.092 67C324.894 67 324.732 66.937 324.606 66.811C324.48 66.685 324.417 66.523 324.417 66.325V53.635C324.417 53.455 324.48 53.302 324.606 53.176C324.732 53.032 324.894 52.96 325.092 52.96H328.197C328.395 52.96 328.557 53.032 328.683 53.176C328.809 53.302 328.872 53.455 328.872 53.635V54.715C329.358 54.157 329.934 53.725 330.6 53.419C331.284 53.113 332.049 52.96 332.895 52.96H334.083C334.263 52.96 334.416 53.023 334.542 53.149C334.686 53.275 334.758 53.437 334.758 53.635V56.416C334.758 56.596 334.686 56.758 334.542 56.902C334.416 57.028 334.263 57.091 334.083 57.091H331.464C330.726 57.091 330.15 57.298 329.736 57.712C329.34 58.108 329.142 58.675 329.142 59.413V66.325C329.142 66.523 329.07 66.685 328.926 66.811C328.8 66.937 328.638 67 328.44 67H325.092ZM342.844 67C342.646 67 342.484 66.937 342.358 66.811C342.232 66.685 342.169 66.523 342.169 66.325V48.775C342.169 48.577 342.232 48.415 342.358 48.289C342.484 48.163 342.646 48.1 342.844 48.1H346.327C346.525 48.1 346.687 48.163 346.813 48.289C346.939 48.415 347.002 48.577 347.002 48.775V55.282H353.671V48.775C353.671 48.577 353.734 48.415 353.86 48.289C353.986 48.163 354.148 48.1 354.346 48.1H357.829C358.027 48.1 358.189 48.163 358.315 48.289C358.441 48.415 358.504 48.577 358.504 48.775V66.325C358.504 66.523 358.441 66.685 358.315 66.811C358.189 66.937 358.027 67 357.829 67H354.346C354.148 67 353.986 66.937 353.86 66.811C353.734 66.685 353.671 66.523 353.671 66.325V59.602H347.002V66.325C347.002 66.523 346.939 66.685 346.813 66.811C346.687 66.937 346.525 67 346.327 67H342.844ZM366.202 67.27C365.23 67.27 364.357 67.09 363.583 66.73C362.827 66.352 362.224 65.848 361.774 65.218C361.324 64.588 361.099 63.877 361.099 63.085C361.099 61.807 361.621 60.799 362.665 60.061C363.709 59.305 365.095 58.792 366.823 58.522L370.198 58.009V57.631C370.198 56.983 370.063 56.488 369.793 56.146C369.523 55.804 369.028 55.633 368.308 55.633C367.804 55.633 367.39 55.732 367.066 55.93C366.76 56.128 366.517 56.398 366.337 56.74C366.175 56.974 365.95 57.091 365.662 57.091H362.638C362.44 57.091 362.287 57.037 362.179 56.929C362.071 56.803 362.026 56.659 362.044 56.497C362.044 56.173 362.161 55.804 362.395 55.39C362.647 54.958 363.025 54.535 363.529 54.121C364.033 53.707 364.681 53.365 365.473 53.095C366.265 52.825 367.219 52.69 368.335 52.69C369.505 52.69 370.504 52.825 371.332 53.095C372.16 53.365 372.826 53.743 373.33 54.229C373.852 54.715 374.239 55.291 374.491 55.957C374.743 56.605 374.869 57.325 374.869 58.117V66.325C374.869 66.523 374.797 66.685 374.653 66.811C374.527 66.937 374.374 67 374.194 67H371.062C370.864 67 370.702 66.937 370.576 66.811C370.45 66.685 370.387 66.523 370.387 66.325V65.38C370.153 65.722 369.838 66.037 369.442 66.325C369.046 66.613 368.578 66.838 368.038 67C367.516 67.18 366.904 67.27 366.202 67.27ZM367.471 64.192C367.993 64.192 368.461 64.084 368.875 63.868C369.307 63.634 369.64 63.283 369.874 62.815C370.126 62.329 370.252 61.726 370.252 61.006V60.628L367.957 61.033C367.111 61.177 366.49 61.402 366.094 61.708C365.716 61.996 365.527 62.338 365.527 62.734C365.527 63.04 365.617 63.301 365.797 63.517C365.977 63.733 366.211 63.904 366.499 64.03C366.787 64.138 367.111 64.192 367.471 64.192ZM382.516 67C382.246 67 382.048 66.937 381.922 66.811C381.796 66.667 381.688 66.505 381.598 66.325L376.495 53.797C376.459 53.725 376.441 53.644 376.441 53.554C376.441 53.392 376.495 53.257 376.603 53.149C376.729 53.023 376.882 52.96 377.062 52.96H380.113C380.347 52.96 380.527 53.023 380.653 53.149C380.779 53.275 380.86 53.401 380.896 53.527L383.947 61.816L387.025 53.527C387.061 53.401 387.142 53.275 387.268 53.149C387.394 53.023 387.574 52.96 387.808 52.96H390.859C391.021 52.96 391.165 53.023 391.291 53.149C391.417 53.257 391.48 53.392 391.48 53.554C391.48 53.644 391.462 53.725 391.426 53.797L386.323 66.325C386.251 66.505 386.143 66.667 385.999 66.811C385.873 66.937 385.666 67 385.378 67H382.516ZM399.531 67.27C397.407 67.27 395.715 66.694 394.455 65.542C393.195 64.39 392.538 62.68 392.484 60.412C392.484 60.286 392.484 60.124 392.484 59.926C392.484 59.728 392.484 59.575 392.484 59.467C392.538 58.045 392.853 56.83 393.429 55.822C394.023 54.796 394.833 54.022 395.859 53.5C396.903 52.96 398.118 52.69 399.504 52.69C401.088 52.69 402.393 53.005 403.419 53.635C404.463 54.265 405.246 55.12 405.768 56.2C406.29 57.28 406.551 58.513 406.551 59.899V60.547C406.551 60.745 406.479 60.907 406.335 61.033C406.209 61.159 406.056 61.222 405.876 61.222H397.236C397.236 61.24 397.236 61.267 397.236 61.303C397.236 61.339 397.236 61.375 397.236 61.411C397.254 61.933 397.344 62.41 397.506 62.842C397.668 63.274 397.92 63.616 398.262 63.868C398.604 64.12 399.018 64.246 399.504 64.246C399.864 64.246 400.161 64.192 400.395 64.084C400.647 63.958 400.854 63.823 401.016 63.679C401.178 63.517 401.304 63.382 401.394 63.274C401.556 63.094 401.682 62.986 401.772 62.95C401.88 62.896 402.042 62.869 402.258 62.869H405.606C405.786 62.869 405.93 62.923 406.038 63.031C406.164 63.121 406.218 63.256 406.2 63.436C406.182 63.742 406.029 64.111 405.741 64.543C405.453 64.975 405.03 65.407 404.472 65.839C403.932 66.253 403.248 66.595 402.42 66.865C401.592 67.135 400.629 67.27 399.531 67.27ZM397.236 58.549H401.799V58.495C401.799 57.919 401.709 57.415 401.529 56.983C401.367 56.551 401.106 56.218 400.746 55.984C400.404 55.75 399.99 55.633 399.504 55.633C399.018 55.633 398.604 55.75 398.262 55.984C397.938 56.218 397.686 56.551 397.506 56.983C397.326 57.415 397.236 57.919 397.236 58.495V58.549ZM415.802 67C415.604 67 415.442 66.937 415.316 66.811C415.19 66.685 415.127 66.523 415.127 66.325V48.775C415.127 48.577 415.19 48.415 415.316 48.289C415.442 48.163 415.604 48.1 415.802 48.1H419.42C419.618 48.1 419.78 48.163 419.906 48.289C420.032 48.415 420.095 48.577 420.095 48.775V66.325C420.095 66.523 420.032 66.685 419.906 66.811C419.78 66.937 419.618 67 419.42 67H415.802ZM430.304 67C430.106 67 429.944 66.937 429.818 66.811C429.692 66.685 429.629 66.523 429.629 66.325V48.775C429.629 48.577 429.692 48.415 429.818 48.289C429.944 48.163 430.106 48.1 430.304 48.1H442.913C443.111 48.1 443.273 48.163 443.399 48.289C443.525 48.415 443.588 48.577 443.588 48.775V51.313C443.588 51.511 443.525 51.673 443.399 51.799C443.273 51.925 443.111 51.988 442.913 51.988H434.3V55.633H442.319C442.517 55.633 442.679 55.705 442.805 55.849C442.931 55.975 442.994 56.137 442.994 56.335V58.684C442.994 58.864 442.931 59.026 442.805 59.17C442.679 59.296 442.517 59.359 442.319 59.359H434.3V63.112H443.129C443.327 63.112 443.489 63.175 443.615 63.301C443.741 63.427 443.804 63.589 443.804 63.787V66.325C443.804 66.523 443.741 66.685 443.615 66.811C443.489 66.937 443.327 67 443.129 67H430.304ZM451.413 67C451.143 67 450.945 66.937 450.819 66.811C450.693 66.667 450.585 66.505 450.495 66.325L445.392 53.797C445.356 53.725 445.338 53.644 445.338 53.554C445.338 53.392 445.392 53.257 445.5 53.149C445.626 53.023 445.779 52.96 445.959 52.96H449.01C449.244 52.96 449.424 53.023 449.55 53.149C449.676 53.275 449.757 53.401 449.793 53.527L452.844 61.816L455.922 53.527C455.958 53.401 456.039 53.275 456.165 53.149C456.291 53.023 456.471 52.96 456.705 52.96H459.756C459.918 52.96 460.062 53.023 460.188 53.149C460.314 53.257 460.377 53.392 460.377 53.554C460.377 53.644 460.359 53.725 460.323 53.797L455.22 66.325C455.148 66.505 455.04 66.667 454.896 66.811C454.77 66.937 454.563 67 454.275 67H451.413ZM468.428 67.27C466.304 67.27 464.612 66.694 463.352 65.542C462.092 64.39 461.435 62.68 461.381 60.412C461.381 60.286 461.381 60.124 461.381 59.926C461.381 59.728 461.381 59.575 461.381 59.467C461.435 58.045 461.75 56.83 462.326 55.822C462.92 54.796 463.73 54.022 464.756 53.5C465.8 52.96 467.015 52.69 468.401 52.69C469.985 52.69 471.29 53.005 472.316 53.635C473.36 54.265 474.143 55.12 474.665 56.2C475.187 57.28 475.448 58.513 475.448 59.899V60.547C475.448 60.745 475.376 60.907 475.232 61.033C475.106 61.159 474.953 61.222 474.773 61.222H466.133C466.133 61.24 466.133 61.267 466.133 61.303C466.133 61.339 466.133 61.375 466.133 61.411C466.151 61.933 466.241 62.41 466.403 62.842C466.565 63.274 466.817 63.616 467.159 63.868C467.501 64.12 467.915 64.246 468.401 64.246C468.761 64.246 469.058 64.192 469.292 64.084C469.544 63.958 469.751 63.823 469.913 63.679C470.075 63.517 470.201 63.382 470.291 63.274C470.453 63.094 470.579 62.986 470.669 62.95C470.777 62.896 470.939 62.869 471.155 62.869H474.503C474.683 62.869 474.827 62.923 474.935 63.031C475.061 63.121 475.115 63.256 475.097 63.436C475.079 63.742 474.926 64.111 474.638 64.543C474.35 64.975 473.927 65.407 473.369 65.839C472.829 66.253 472.145 66.595 471.317 66.865C470.489 67.135 469.526 67.27 468.428 67.27ZM466.133 58.549H470.696V58.495C470.696 57.919 470.606 57.415 470.426 56.983C470.264 56.551 470.003 56.218 469.643 55.984C469.301 55.75 468.887 55.633 468.401 55.633C467.915 55.633 467.501 55.75 467.159 55.984C466.835 56.218 466.583 56.551 466.403 56.983C466.223 57.415 466.133 57.919 466.133 58.495V58.549ZM478.655 67C478.457 67 478.295 66.937 478.169 66.811C478.043 66.685 477.98 66.523 477.98 66.325V53.635C477.98 53.455 478.043 53.302 478.169 53.176C478.295 53.032 478.457 52.96 478.655 52.96H481.76C481.958 52.96 482.12 53.032 482.246 53.176C482.372 53.302 482.435 53.455 482.435 53.635V54.715C482.921 54.157 483.497 53.725 484.163 53.419C484.847 53.113 485.612 52.96 486.458 52.96H487.646C487.826 52.96 487.979 53.023 488.105 53.149C488.249 53.275 488.321 53.437 488.321 53.635V56.416C488.321 56.596 488.249 56.758 488.105 56.902C487.979 57.028 487.826 57.091 487.646 57.091H485.027C484.289 57.091 483.713 57.298 483.299 57.712C482.903 58.108 482.705 58.675 482.705 59.413V66.325C482.705 66.523 482.633 66.685 482.489 66.811C482.363 66.937 482.201 67 482.003 67H478.655Z" fill="white"/>
<rect x="354" y="161" width="135" height="42" rx="7" fill="#F7A523" fill-opacity="0.5"/>
<path d="M363.949 191C363.751 191 363.589 190.937 363.463 190.811C363.337 190.685 363.274 190.523 363.274 190.325V172.775C363.274 172.577 363.337 172.415 363.463 172.289C363.589 172.163 363.751 172.1 363.949 172.1H371.509C373.003 172.1 374.299 172.334 375.397 172.802C376.513 173.252 377.377 173.936 377.989 174.854C378.619 175.772 378.934 176.933 378.934 178.337C378.934 179.723 378.619 180.866 377.989 181.766C377.377 182.666 376.513 183.332 375.397 183.764C374.299 184.196 373.003 184.412 371.509 184.412H368.296V190.325C368.296 190.523 368.224 190.685 368.08 190.811C367.954 190.937 367.792 191 367.594 191H363.949ZM368.215 180.686H371.374C372.148 180.686 372.76 180.488 373.21 180.092C373.678 179.696 373.912 179.093 373.912 178.283C373.912 177.599 373.714 177.023 373.318 176.555C372.922 176.087 372.274 175.853 371.374 175.853H368.215V180.686ZM385.118 191.27C384.146 191.27 383.273 191.09 382.499 190.73C381.743 190.352 381.14 189.848 380.69 189.218C380.24 188.588 380.015 187.877 380.015 187.085C380.015 185.807 380.537 184.799 381.581 184.061C382.625 183.305 384.011 182.792 385.739 182.522L389.114 182.009V181.631C389.114 180.983 388.979 180.488 388.709 180.146C388.439 179.804 387.944 179.633 387.224 179.633C386.72 179.633 386.306 179.732 385.982 179.93C385.676 180.128 385.433 180.398 385.253 180.74C385.091 180.974 384.866 181.091 384.578 181.091H381.554C381.356 181.091 381.203 181.037 381.095 180.929C380.987 180.803 380.942 180.659 380.96 180.497C380.96 180.173 381.077 179.804 381.311 179.39C381.563 178.958 381.941 178.535 382.445 178.121C382.949 177.707 383.597 177.365 384.389 177.095C385.181 176.825 386.135 176.69 387.251 176.69C388.421 176.69 389.42 176.825 390.248 177.095C391.076 177.365 391.742 177.743 392.246 178.229C392.768 178.715 393.155 179.291 393.407 179.957C393.659 180.605 393.785 181.325 393.785 182.117V190.325C393.785 190.523 393.713 190.685 393.569 190.811C393.443 190.937 393.29 191 393.11 191H389.978C389.78 191 389.618 190.937 389.492 190.811C389.366 190.685 389.303 190.523 389.303 190.325V189.38C389.069 189.722 388.754 190.037 388.358 190.325C387.962 190.613 387.494 190.838 386.954 191C386.432 191.18 385.82 191.27 385.118 191.27ZM386.387 188.192C386.909 188.192 387.377 188.084 387.791 187.868C388.223 187.634 388.556 187.283 388.79 186.815C389.042 186.329 389.168 185.726 389.168 185.006V184.628L386.873 185.033C386.027 185.177 385.406 185.402 385.01 185.708C384.632 185.996 384.443 186.338 384.443 186.734C384.443 187.04 384.533 187.301 384.713 187.517C384.893 187.733 385.127 187.904 385.415 188.03C385.703 188.138 386.027 188.192 386.387 188.192ZM397.507 191C397.309 191 397.147 190.937 397.021 190.811C396.895 190.685 396.832 190.523 396.832 190.325V177.635C396.832 177.455 396.895 177.302 397.021 177.176C397.147 177.032 397.309 176.96 397.507 176.96H400.612C400.81 176.96 400.972 177.032 401.098 177.176C401.224 177.302 401.287 177.455 401.287 177.635V178.715C401.773 178.157 402.349 177.725 403.015 177.419C403.699 177.113 404.464 176.96 405.31 176.96H406.498C406.678 176.96 406.831 177.023 406.957 177.149C407.101 177.275 407.173 177.437 407.173 177.635V180.416C407.173 180.596 407.101 180.758 406.957 180.902C406.831 181.028 406.678 181.091 406.498 181.091H403.879C403.141 181.091 402.565 181.298 402.151 181.712C401.755 182.108 401.557 182.675 401.557 183.413V190.325C401.557 190.523 401.485 190.685 401.341 190.811C401.215 190.937 401.053 191 400.855 191H397.507ZM413.068 191.27C412.096 191.27 411.223 191.09 410.449 190.73C409.693 190.352 409.09 189.848 408.64 189.218C408.19 188.588 407.965 187.877 407.965 187.085C407.965 185.807 408.487 184.799 409.531 184.061C410.575 183.305 411.961 182.792 413.689 182.522L417.064 182.009V181.631C417.064 180.983 416.929 180.488 416.659 180.146C416.389 179.804 415.894 179.633 415.174 179.633C414.67 179.633 414.256 179.732 413.932 179.93C413.626 180.128 413.383 180.398 413.203 180.74C413.041 180.974 412.816 181.091 412.528 181.091H409.504C409.306 181.091 409.153 181.037 409.045 180.929C408.937 180.803 408.892 180.659 408.91 180.497C408.91 180.173 409.027 179.804 409.261 179.39C409.513 178.958 409.891 178.535 410.395 178.121C410.899 177.707 411.547 177.365 412.339 177.095C413.131 176.825 414.085 176.69 415.201 176.69C416.371 176.69 417.37 176.825 418.198 177.095C419.026 177.365 419.692 177.743 420.196 178.229C420.718 178.715 421.105 179.291 421.357 179.957C421.609 180.605 421.735 181.325 421.735 182.117V190.325C421.735 190.523 421.663 190.685 421.519 190.811C421.393 190.937 421.24 191 421.06 191H417.928C417.73 191 417.568 190.937 417.442 190.811C417.316 190.685 417.253 190.523 417.253 190.325V189.38C417.019 189.722 416.704 190.037 416.308 190.325C415.912 190.613 415.444 190.838 414.904 191C414.382 191.18 413.77 191.27 413.068 191.27ZM414.337 188.192C414.859 188.192 415.327 188.084 415.741 187.868C416.173 187.634 416.506 187.283 416.74 186.815C416.992 186.329 417.118 185.726 417.118 185.006V184.628L414.823 185.033C413.977 185.177 413.356 185.402 412.96 185.708C412.582 185.996 412.393 186.338 412.393 186.734C412.393 187.04 412.483 187.301 412.663 187.517C412.843 187.733 413.077 187.904 413.365 188.03C413.653 188.138 413.977 188.192 414.337 188.192ZM425.456 191C425.258 191 425.096 190.937 424.97 190.811C424.844 190.685 424.781 190.523 424.781 190.325V177.635C424.781 177.437 424.844 177.275 424.97 177.149C425.096 177.023 425.258 176.96 425.456 176.96H428.561C428.759 176.96 428.921 177.023 429.047 177.149C429.173 177.275 429.236 177.437 429.236 177.635V178.661C429.704 178.103 430.316 177.635 431.072 177.257C431.828 176.879 432.719 176.69 433.745 176.69C434.789 176.69 435.707 176.924 436.499 177.392C437.309 177.86 437.939 178.553 438.389 179.471C438.857 180.371 439.091 181.478 439.091 182.792V190.325C439.091 190.523 439.019 190.685 438.875 190.811C438.749 190.937 438.596 191 438.416 191H435.014C434.834 191 434.672 190.937 434.528 190.811C434.402 190.685 434.339 190.523 434.339 190.325V182.954C434.339 182.108 434.132 181.46 433.718 181.01C433.322 180.542 432.728 180.308 431.936 180.308C431.198 180.308 430.604 180.542 430.154 181.01C429.722 181.46 429.506 182.108 429.506 182.954V190.325C429.506 190.523 429.434 190.685 429.29 190.811C429.164 190.937 429.011 191 428.831 191H425.456ZM448.747 191.27C447.235 191.27 445.957 191.027 444.913 190.541C443.887 190.055 443.095 189.362 442.537 188.462C441.997 187.544 441.691 186.455 441.619 185.195C441.601 184.835 441.592 184.43 441.592 183.98C441.592 183.512 441.601 183.107 441.619 182.765C441.691 181.487 442.015 180.398 442.591 179.498C443.167 178.598 443.968 177.905 444.994 177.419C446.038 176.933 447.289 176.69 448.747 176.69C450.223 176.69 451.474 176.933 452.5 177.419C453.544 177.905 454.354 178.598 454.93 179.498C455.506 180.398 455.83 181.487 455.902 182.765C455.92 183.107 455.929 183.512 455.929 183.98C455.929 184.43 455.92 184.835 455.902 185.195C455.83 186.455 455.515 187.544 454.957 188.462C454.417 189.362 453.625 190.055 452.581 190.541C451.555 191.027 450.277 191.27 448.747 191.27ZM448.747 187.976C449.557 187.976 450.142 187.733 450.502 187.247C450.88 186.761 451.096 186.032 451.15 185.06C451.168 184.79 451.177 184.43 451.177 183.98C451.177 183.53 451.168 183.17 451.15 182.9C451.096 181.946 450.88 181.226 450.502 180.74C450.142 180.236 449.557 179.984 448.747 179.984C447.955 179.984 447.37 180.236 446.992 180.74C446.614 181.226 446.407 181.946 446.371 182.9C446.353 183.17 446.344 183.53 446.344 183.98C446.344 184.43 446.353 184.79 446.371 185.06C446.407 186.032 446.614 186.761 446.992 187.247C447.37 187.733 447.955 187.976 448.747 187.976ZM459.259 191C459.061 191 458.899 190.937 458.773 190.811C458.647 190.685 458.584 190.523 458.584 190.325V177.635C458.584 177.437 458.647 177.275 458.773 177.149C458.899 177.023 459.061 176.96 459.259 176.96H462.445C462.625 176.96 462.778 177.023 462.904 177.149C463.048 177.275 463.12 177.437 463.12 177.635V190.325C463.12 190.523 463.048 190.685 462.904 190.811C462.778 190.937 462.625 191 462.445 191H459.259ZM459.232 174.935C459.034 174.935 458.872 174.872 458.746 174.746C458.62 174.62 458.557 174.458 458.557 174.26V171.857C458.557 171.659 458.62 171.497 458.746 171.371C458.872 171.227 459.034 171.155 459.232 171.155H462.445C462.643 171.155 462.805 171.227 462.931 171.371C463.075 171.497 463.147 171.659 463.147 171.857V174.26C463.147 174.458 463.075 174.62 462.931 174.746C462.805 174.872 462.643 174.935 462.445 174.935H459.232ZM470.495 191.27C469.523 191.27 468.65 191.09 467.876 190.73C467.12 190.352 466.517 189.848 466.067 189.218C465.617 188.588 465.392 187.877 465.392 187.085C465.392 185.807 465.914 184.799 466.958 184.061C468.002 183.305 469.388 182.792 471.116 182.522L474.491 182.009V181.631C474.491 180.983 474.356 180.488 474.086 180.146C473.816 179.804 473.321 179.633 472.601 179.633C472.097 179.633 471.683 179.732 471.359 179.93C471.053 180.128 470.81 180.398 470.63 180.74C470.468 180.974 470.243 181.091 469.955 181.091H466.931C466.733 181.091 466.58 181.037 466.472 180.929C466.364 180.803 466.319 180.659 466.337 180.497C466.337 180.173 466.454 179.804 466.688 179.39C466.94 178.958 467.318 178.535 467.822 178.121C468.326 177.707 468.974 177.365 469.766 177.095C470.558 176.825 471.512 176.69 472.628 176.69C473.798 176.69 474.797 176.825 475.625 177.095C476.453 177.365 477.119 177.743 477.623 178.229C478.145 178.715 478.532 179.291 478.784 179.957C479.036 180.605 479.162 181.325 479.162 182.117V190.325C479.162 190.523 479.09 190.685 478.946 190.811C478.82 190.937 478.667 191 478.487 191H475.355C475.157 191 474.995 190.937 474.869 190.811C474.743 190.685 474.68 190.523 474.68 190.325V189.38C474.446 189.722 474.131 190.037 473.735 190.325C473.339 190.613 472.871 190.838 472.331 191C471.809 191.18 471.197 191.27 470.495 191.27ZM471.764 188.192C472.286 188.192 472.754 188.084 473.168 187.868C473.6 187.634 473.933 187.283 474.167 186.815C474.419 186.329 474.545 185.726 474.545 185.006V184.628L472.25 185.033C471.404 185.177 470.783 185.402 470.387 185.708C470.009 185.996 469.82 186.338 469.82 186.734C469.82 187.04 469.91 187.301 470.09 187.517C470.27 187.733 470.504 187.904 470.792 188.03C471.08 188.138 471.404 188.192 471.764 188.192Z" fill="white"/>
</svg>
