<svg width="278" height="236" viewBox="0 0 278 236" fill="none" xmlns="http://www.w3.org/2000/svg">
<path d="M0 0.917725L0 43.8058L57.8615 43.8058L57.8615 162.667L103.888 162.667L103.888 43.8058L161.749 43.8058V0.917725L0 0.917725Z" fill="#5865F2"/>
<path d="M125.999 235.999L125.999 61.999L189.926 61.999C214.148 62.1529 234.844 70.6144 252.014 87.3836C269.337 104.153 277.999 124.768 277.999 149.23C277.999 173.691 269.337 194.306 252.014 211.076C234.691 227.691 213.995 235.999 189.926 235.999L125.999 235.999ZM171.07 100.307L171.07 197.691H181.188C194.679 197.846 206.33 194.076 216.141 186.384C226.106 178.537 231.088 166.153 231.088 149.23C231.088 133.691 226.489 121.691 217.291 113.23C208.093 104.768 196.212 100.537 181.648 100.537L171.07 100.307Z" fill="#ED4245"/>
</svg>
